<svg width="310" height="310" xmlns="http://www.w3.org/2000/svg" >
<path d="m 166.48,79.28 c -5.66,-2.23 -14.49,-4.72 -18.11,-3.47 -8.04,2.88 -18.24,14.24 -20.15,20.08 0.65,47.64 33.40,84.06 30.23,120.29 -0.92,10.23 -4.74,18.64 -11.92,25.40 4.27,0.19 12.71,0.32 26.48,-14.44 2.37,-2.49 3.36,-5.57 4.41,-12.53 1.71,-11.67 -1.64,-28.28 -11.46,-52.10 -9.09,-21.52 -16.00,-42.46 -18.71,-55.38 -4.54,-21.46 2.24,-28.87 19.23,-27.82 z m 64.62,-63.98 c -5.60,-2.29 -15.81,-1.83 -19.56,-1.24 -9.35,1.70 -15.80,15.35 -17.85,21.06 -3.55,45.15 28.86,85.71 25.76,119.37 -0.59,6.88 -2.76,12.99 -6.26,18.17 -1.64,2.55 -0.45,1.50 -2.76,3.67 4.28,0.19 9.48,3.80 23.45,-10.63 2.37,-2.49 3.42,-5.51 4.61,-12.46 1.11,-6.89 0.46,-15.42 -2.10,-26.24 -5.53,-22.57 -45.46,-112.75 -5.27,-111.70 z m 47.56,36.53 c 2.21,8.90 3.77,18.00 4.81,26.92 0.45,4.12 0.92,8.39 0.52,12.46 -0.92,10.23 -3.29,17.19 -10.41,23.88 4.28,0.20 11.19,1.83 24.97,-12.92 2.37,-2.49 3.36,-5.57 4.41,-12.53 1.05,-7.34 0.12,-14.95 -1.12,-22.11 -1.12,-6.75 -2.56,-13.56 -4.49,-20.20 z m 0,0 M 40.78,201.21 c -5.66,-2.23 -12.64,-3.28 -16.20,-1.96 -8.03,2.88 -18.18,13.51 -20.03,19.29 0.20,12.92 1.38,30.77 5.00,42.52 l 18.71,-3.54 c -2.24,-6.95 -4.02,-20.40 -4.74,-25.59 -2.90,-20.60 0.26,-31.76 17.25,-30.71 z m 0,0 m 60.21,-59.98 c -5.66,-2.23 -12.64,-3.27 -16.20,-1.96 -8.03,2.88 -18.05,14.17 -20.02,19.95 0.72,47.58 33.26,84.06 30.10,120.29 -0.46,5.44 -1.77,10.30 -4.01,14.76 -0.52,1.04 -0.59,1.50 -0.53,1.57 1.45,-1.31 0.26,0.26 0,0 -0.19,0.19 -0.39,0.39 -0.59,0.58 4.28,0.19 5.99,8.85 19.76,-5.91 2.37,-2.49 3.35,-5.57 4.41,-12.53 1.71,-11.68 -1.64,-28.28 -11.46,-52.10 -9.08,-21.52 -15.73,-41.15 -18.70,-54.08 -5.60,-24.21 0.32,-31.69 17.25,-30.58 z m 0,0" fill="#257" />
<path d="m 26.88,211.25 72.40,72.12 c 1.71,1.70 1.71,4.58 -6e-6,6.29 l -0.72,0.72 c -1.71,1.70 -4.61,1.70 -6.32,0 L 19.83,218.27 c -1.71,-1.70 -1.71,-4.58 -5e-6,-6.29 l 0.72,-0.72 c 1.77,-1.64 4.61,-1.70 6.32,0 z m 0,0" fill="#fa3" />
<path d="m 90.52,147.86 72.40,72.12 c 1.71,1.70 1.71,4.59 -0.00,6.29 l -0.72,0.71 c -1.71,1.70 -4.61,1.70 -6.32,0.00 L 83.47,154.88 c -1.71,-1.70 -1.71,-4.59 0.00,-6.29 l 0.72,-0.71 c 1.77,-1.64 4.61,-1.70 6.32,-0.00 z M 236.04,10.89 294.75,74.22 c 1.58,1.71 1.44,4.33 -0.20,5.97 l -0.65,0.65 c -1.71,1.57 -4.27,1.50 -5.86,-0.19 L 229.33,17.32 c -1.58,-1.70 -1.45,-4.33 0.19,-5.97 l 0.66,-0.65 c 1.64,-1.64 4.28,-1.50 5.86,0.19 z m 0,0" fill="#6cf" />
<path d="m 235.39,10.10 33.13,35.76 -6.65,6.49 -33.27,-35.89 c -1.18,-1.31 -0.79,-3.67 0.85,-5.18 l 0.66,-0.65 c 1.71,-1.57 4.08,-1.83 5.27,-0.52 z m 0,0" fill="#fa3" />
<path d="m 46.97,199.24 58.70,63.33 c 1.58,1.71 1.44,4.33 -0.20,5.97 l -0.65,0.65 c -1.71,1.57 -4.28,1.51 -5.86,-0.19 L 40.25,205.68 c -1.58,-1.70 -1.45,-4.33 0.19,-5.97 l 0.66,-0.65 c 1.64,-1.64 4.28,-1.50 5.86,0.19 z m 0,0" fill="#f9e" />
<path d="M 144.54,229.89 81.56,171.35 c -1.77,-1.63 -4.54,-1.50 -6.25,0.19 l -0.72,0.72 c -1.64,1.77 -1.50,4.52 0.26,6.17 l 62.98,58.54 c 1.77,1.63 4.54,1.50 6.25,-0.19 l 0.72,-0.71 c 1.65,-1.77 1.51,-4.53 -0.26,-6.17 z M 206.47,168.20 143.48,109.66 c -1.77,-1.63 -4.54,-1.50 -6.25,0.19 l -0.72,0.72 c -1.64,1.77 -1.51,4.53 0.26,6.17 l 62.98,58.54 c 1.77,1.64 4.54,1.50 6.25,-0.19 l 0.72,-0.72 c 1.58,-1.70 1.51,-4.53 -0.26,-6.17 z m 63.57,-63.33 -62.98,-58.54 c -1.77,-1.63 -4.54,-1.50 -6.25,0.19 l -0.72,0.72 c -1.64,1.77 -1.51,4.53 0.26,6.17 l 62.98,58.54 c 1.77,1.63 4.54,1.50 6.25,-0.19 l 0.72,-0.72 c 1.58,-1.70 1.51,-4.52 -0.26,-6.16 z m 0,0" fill="#6cf" />
<path d="m 172.47,74.22 58.70,63.33 c 1.58,1.71 1.44,4.33 -0.20,5.97 l -0.65,0.65 c -1.71,1.57 -4.28,1.51 -5.86,-0.19 L 165.75,80.65 c -1.58,-1.70 -1.45,-4.33 0.19,-5.97 l 0.66,-0.65 c 1.64,-1.64 4.28,-1.50 5.86,0.19 z m 0,0" fill="#ce6" />
<path d="m 110.61,135.85 58.69,63.33 c 1.58,1.71 1.44,4.33 -0.19,5.96 l -0.66,0.65 c -1.71,1.57 -4.27,1.50 -5.86,-0.19 L 103.89,142.28 c -1.58,-1.70 -1.45,-4.33 0.19,-5.97 l 0.66,-0.65 c 1.58,-1.57 4.28,-1.50 5.86,0.19 z m 0,0" fill="#6cf" />
<path d="M 80.96,293.22 18.05,234.75 c -1.78,-1.63 -4.54,-1.50 -6.25,0.19 l -0.72,0.72 c -1.64,1.77 -1.51,4.52 0.26,6.17 l 62.98,58.53 c 1.77,1.64 4.54,1.50 6.25,-0.19 l 0.72,-0.72 c 1.51,-1.76 1.38,-4.52 -0.33,-6.23 z m 0,0" fill="#f9e" />
<path d="m 270.89,105.72 -33.13,-30.77 -6.45,7.35 32.94,30.58 c 1.31,1.17 3.62,0.71 5.33,-0.98 l 0.72,-0.72 c 1.58,-1.83 1.91,-4.26 0.59,-5.44 z m 0,0" fill="#fa3" />
<path d="m 152.38,86.23 72.40,72.12 c 1.71,1.70 1.70,4.59 -0.00,6.29 l -0.72,0.72 c -1.71,1.70 -4.61,1.70 -6.32,0.00 l -72.40,-72.12 c -1.71,-1.70 -1.71,-4.59 0.00,-6.29 l 0.72,-0.72 c 1.84,-1.70 4.61,-1.70 6.32,-0.00 z M 81.82,294.08 48.69,263.30 42.30,270.58 75.24,301.17 c 1.31,1.17 3.62,0.71 5.33,-0.98 l 0.72,-0.72 c 1.51,-1.76 1.84,-4.19 0.52,-5.37 z m -35.57,-95.55 33.26,35.76 -6.65,6.49 -33.27,-35.89 c -1.18,-1.31 -0.79,-3.67 0.85,-5.18 l 0.66,-0.65 c 1.64,-1.64 3.95,-1.83 5.14,-0.52 z m 0,0" fill="#ce6" />
<path d="m 109.89,135.13 33.13,35.76 -6.65,6.49 -33.26,-35.90 c -1.18,-1.31 -0.79,-3.67 0.85,-5.18 l 0.65,-0.65 c 1.71,-1.57 4.08,-1.83 5.27,-0.52 z m 35.57,95.55 -33.13,-30.77 -6.45,7.35 32.94,30.58 c 1.31,1.17 3.62,0.71 5.33,-0.98 l 0.72,-0.71 c 1.58,-1.83 1.85,-4.20 0.59,-5.45 z m 61.85,-61.62 -33.13,-30.77 -6.45,7.35 32.94,30.58 c 1.30,1.18 3.61,0.72 5.33,-0.98 l 0.72,-0.72 c 1.58,-1.83 1.91,-4.26 0.59,-5.44 z m 0,0" fill="#fa3" />
<path d="m 171.82,73.44 33.13,35.76 -6.65,6.49 -33.27,-35.89 c -1.18,-1.31 -0.79,-3.67 0.85,-5.18 l 0.66,-0.65 c 1.71,-1.57 4.02,-1.77 5.27,-0.52 z m 0,0" fill="#f9e" />
<path d="m 63.77,248.01 36.36,36.22 c 1.25,1.24 0.79,3.67 -0.92,5.37 l -0.72,0.72 c -1.71,1.70 -4.14,2.16 -5.40,0.91 L 56.72,255.02 Z m 0,0" fill="#6cf" />
<path d="m 215.95,22.90 72.40,72.12 c 1.71,1.70 1.71,4.59 -0.00,6.29 l -0.72,0.72 c -1.71,1.70 -4.61,1.70 -6.32,0 L 208.90,29.92 c -1.71,-1.70 -1.71,-4.58 -10e-6,-6.29 l 0.72,-0.72 c 1.84,-1.70 4.61,-1.70 6.32,-0.00 z m 0,0" fill="#f9e" />
<path d="m 252.85,59.65 36.36,36.22 c 1.25,1.24 0.79,3.67 -0.92,5.38 l -0.72,0.72 c -1.71,1.70 -4.14,2.16 -5.40,0.91 L 245.80,66.67 Z m 0,0" fill="#ce6" />
<path d="m 127.41,184.61 36.36,36.22 c 1.25,1.24 0.79,3.67 -0.92,5.38 l -0.72,0.71 c -1.71,1.70 -4.15,2.16 -5.40,0.91 L 120.36,191.63 Z m 0,0" fill="#fa3" />
<path d="m 189.27,122.98 36.36,36.22 c 1.25,1.24 0.78,3.67 -0.92,5.38 l -0.72,0.72 c -1.71,1.70 -4.15,2.16 -5.40,0.91 l -36.36,-36.22 z m 0,0" fill="#f9e" />
<path d="m 266.94,97.58 c -12.97,-2.95 -32.67,-9.58 -54.28,-18.63 -17.58,-7.15 -41.23,-15.09 -60.67,-11.21 -4.15,0.85 -7.97,2.68 -12.11,6.42 -8.17,7.35 -12.45,15.15 -11.53,26.05 0.46,5.44 0.06,2.69 1.25,-0.98 6.05,-18.24 38.27,-14.24 53.75,-10.37 29.24,7.35 60.80,27.37 98.09,27.89 5.79,-1.83 17.12,-11.94 20.02,-19.94 1.31,-3.54 0.98,-4.00 0.98,-4.00 -1.71,1.18 -11.13,10.30 -35.51,4.78 z m -45.52,63.72 c -4.28,0.19 -9.68,-0.45 -16.40,-2.03 -12.97,-2.95 -32.67,-9.58 -54.28,-18.63 -12.78,-5.25 -57.90,-19.49 -72.99,-5.51 -5.59,5.18 -8.62,9.12 -10.27,12.60 -4.48,9.18 -2.17,14.62 -2.43,16.60 0.98,-23.69 45.19,-17.32 62.58,-12.07 27.60,8.32 57.24,25.65 91.96,26.24 5.79,-1.83 14.95,-11.35 17.78,-19.42 1.32,-3.54 1.58,-9.18 1.58,-9.18 -0.39,3.41 -6.05,10.89 -17.52,11.41 z m 0,0 m -79.97,61.29 c -12.97,-2.95 -32.67,-9.58 -54.28,-18.63 -12.12,-4.98 -34.32,-12.79 -52.44,-12.20 -10.27,0.26 -14.16,0.33 -20.55,6.95 -7.83,8.20 -9.68,15.81 -9.81,21.72 -0.06,6.75 0.66,3.80 2.17,0.98 11.46,-21.92 59.09,-5.71 74.37,0.19 15.61,5.97 33.00,14.10 50.72,18.11 6.78,1.50 23.32,4.20 29.58,0.85 6.12,-3.21 12.31,-11.88 14.55,-18.05 0.92,-2.62 1.51,-6.23 1.78,-9.12 0.52,-5.12 0.13,-1.70 -0.59,0.32 -3.15,9.18 -13.57,13.91 -35.50,8.85 z m 0,0 m -87.55,58.87 -5.46,18.04 c 13.24,4.00 31.95,4.79 47.37,3.21 5.79,-1.83 14.49,-10.89 17.32,-18.96 1.32,-3.54 1.45,-9.58 1.05,-10.76 -1.38,18.57 -40.97,12.99 -60.28,8.46 z m 0,0 M 263.54,8.80 c 0.39,-1.37 -21.42,-3.99 -23.33,-4.21 -12.18,-1.37 -26.69,-1.16 -36.35,7.45 -0.92,0.82 -1.78,1.71 -2.58,2.66 -9.42,11.21 -9.02,21.84 -7.77,25.72 0.52,-12.73 13.96,-16.01 23.12,-17.78 18.01,-3.41 25.16,-4.09 42.68,0.72 0,0 4.22,-14.52 4.24,-14.56 z m 0,0" fill="#69f"/>
</svg>
