<svg width="20" height="20" xmlns="http://www.w3.org/2000/svg"><path fill="currentColor" d="M 13.75,0 C 13.6,0.7 14.4,2 14,2.4 12.3,2 11,1.4 9,2.2 7.9,3 7.3,4.5 7.7,5.8 7.7,6.6 8.3,7.8 8.1,8.2 6.5,7.8 4.77,7.3 3.19,8.0 2.17,8.6 1.37,9.8 1.6,11 1.5,12 2.36,13.4 2.0,14.1 1.45,14.07 0.06,13.16 0,14.15 c 0,0.4 0,0.8 0,1.27 1.0,0.3 2.56,0.3 3.2,1.2 0.4,1.09 0.88,2.19 1.1,3.35 0.6,0 1.2,0 1.8,0 0.05,-0.85 -0.9,-2.17 -0.5,-2.68 1.56,0.56 3.2,1.1 4.9,0.8 1.4,-0.7 1.9,-2.58 1.58,-4.08 -0.0,-0.88 -0.78,-2.25 -0.67,-2.7 1.5,0.55 3.08,1 4.7,1.0 1.0,-0.5 1.88,-1.5 1.8,-2.7 C 18.08,8.16 17.58,6.78 17.1,5.46 18,5.58 19.35,6.6 20,5.96 20,5.49 20,5.0 20,4.55 18.78,4.2 17.59,3.79 16.4,3.3 15.9,2.26 16.0,1.0 15.48,0 14.9,0 14.3,0 13.75,0 Z m -3.45,3.6 c 1.57,-0.0 3.1,0.4 4.55,1 0.65,1.95 1.67,3.97 1.2,6.09 C 14.1,10.5 12.26,9.7 10.4,9.05 9.89,7.45 9.2,5.8 9.25,4.1 9.28,3.56 9.9,3.59 10.29,3.6 Z M 4.48,9.39 c 1.57,0.0 3.1,0.4 4.57,1.0 0.76,1.95 1.75,4.05 1.2,6.19 C 8.2,16.5 6.3,15.7 4.45,15.0 3.9,13.3 3.1,11.6 3.2,9.7 3.4,9.2 4.1,9.5 4.5,9.4 Z" /></svg>
